<svg width="64" height="21" viewBox="0 0 64 21" fill="none" xmlns="http://www.w3.org/2000/svg">
<path d="M19.56 6.8H18.528C18.48 6.016 18.36 5.368 18.168 4.856C17.992 4.328 17.736 3.912 17.4 3.608C17.064 3.288 16.656 3.072 16.176 2.96C15.696 2.832 15.136 2.768 14.496 2.768C13.872 2.768 13.368 2.784 12.984 2.816C12.616 2.832 12.328 2.872 12.12 2.936C11.928 2.984 11.8 3.056 11.736 3.152C11.672 3.248 11.64 3.368 11.64 3.512V16.088C11.64 16.6 11.672 17.04 11.736 17.408C11.816 17.776 11.968 18.08 12.192 18.32C12.416 18.544 12.744 18.72 13.176 18.848C13.608 18.96 14.176 19.024 14.88 19.04V20H4.824V19.04C5.544 19.024 6.12 18.96 6.552 18.848C6.984 18.72 7.312 18.544 7.536 18.32C7.776 18.08 7.928 17.776 7.992 17.408C8.072 17.04 8.112 16.6 8.112 16.088V3.512C8.112 3.368 8.08 3.248 8.016 3.152C7.968 3.056 7.856 2.984 7.68 2.936C7.504 2.872 7.248 2.832 6.912 2.816C6.592 2.784 6.168 2.768 5.64 2.768C5.064 2.768 4.512 2.8 3.984 2.864C3.456 2.912 2.992 3.072 2.592 3.344C2.192 3.6 1.864 4 1.608 4.544C1.368 5.072 1.24 5.824 1.224 6.8H0.288L0.528 1.52H19.32L19.56 6.8ZM25.7076 16.064C25.7076 16.72 25.7236 17.24 25.7556 17.624C25.8036 17.992 25.8916 18.28 26.0196 18.488C26.1636 18.696 26.3716 18.832 26.6436 18.896C26.9316 18.96 27.3156 19.008 27.7956 19.04V20H20.2356V19.04C20.7156 19.008 21.0996 18.96 21.3876 18.896C21.6756 18.832 21.8916 18.704 22.0356 18.512C22.1796 18.32 22.2676 18.048 22.2996 17.696C22.3476 17.328 22.3716 16.84 22.3716 16.232V6.368C22.3716 5.408 22.3556 4.656 22.3236 4.112C22.3076 3.552 22.2676 3.128 22.2036 2.84C22.1556 2.632 22.0996 2.472 22.0356 2.36C21.9716 2.232 21.8676 2.136 21.7236 2.072C21.5956 1.992 21.4116 1.944 21.1716 1.928C20.9476 1.896 20.6596 1.88 20.3076 1.88V0.991999L25.6596 0.079999V8.936H25.7556C26.2516 8.28 26.8036 7.8 27.4116 7.496C28.0356 7.192 28.7796 7.04 29.6436 7.04C31.2116 7.04 32.4276 7.52 33.2916 8.48C33.7076 8.96 34.0356 9.544 34.2756 10.232C34.5156 10.904 34.6356 11.608 34.6356 12.344V16.064C34.6356 16.736 34.6516 17.264 34.6836 17.648C34.7156 18.016 34.7956 18.304 34.9236 18.512C35.0676 18.704 35.2756 18.832 35.5476 18.896C35.8196 18.96 36.1956 19.008 36.6756 19.04V20H29.1636V19.04C29.6436 19.024 30.0196 18.984 30.2916 18.92C30.5796 18.84 30.7956 18.704 30.9396 18.512C31.0996 18.32 31.1956 18.048 31.2276 17.696C31.2756 17.328 31.2996 16.84 31.2996 16.232V13.28C31.2996 11.584 31.1156 10.384 30.7476 9.68C30.3796 8.976 29.7476 8.624 28.8516 8.624C27.8916 8.624 27.1316 8.976 26.5716 9.68C26.2996 10.048 26.0836 10.504 25.9236 11.048C25.7796 11.592 25.7076 12.2 25.7076 12.872V16.064ZM44.8564 7.04C45.8164 7.04 46.7204 7.208 47.5684 7.544C48.4324 7.864 49.1844 8.312 49.8244 8.888C50.4804 9.464 50.9924 10.152 51.3604 10.952C51.7444 11.736 51.9364 12.6 51.9364 13.544C51.9364 14.52 51.7444 15.416 51.3604 16.232C50.9924 17.048 50.4804 17.752 49.8244 18.344C49.1844 18.936 48.4324 19.4 47.5684 19.736C46.7204 20.072 45.8164 20.24 44.8564 20.24C43.9124 20.24 43.0164 20.08 42.1684 19.76C41.3204 19.424 40.5764 18.96 39.9364 18.368C39.2964 17.776 38.7924 17.072 38.4244 16.256C38.0564 15.424 37.8724 14.52 37.8724 13.544C37.8724 12.6 38.0564 11.728 38.4244 10.928C38.7924 10.128 39.2964 9.44 39.9364 8.864C40.5764 8.288 41.3204 7.84 42.1684 7.52C43.0164 7.2 43.9124 7.04 44.8564 7.04ZM44.8564 8.432C44.3764 8.432 43.9364 8.56 43.5364 8.816C43.1364 9.056 42.7924 9.4 42.5044 9.848C42.2324 10.296 42.0164 10.84 41.8564 11.48C41.7124 12.104 41.6404 12.8 41.6404 13.568C41.6404 14.368 41.7124 15.088 41.8564 15.728C42.0164 16.368 42.2324 16.912 42.5044 17.36C42.7924 17.808 43.1284 18.16 43.5124 18.416C43.9124 18.656 44.3604 18.776 44.8564 18.776C45.3524 18.776 45.8004 18.656 46.2004 18.416C46.6164 18.16 46.9684 17.808 47.2564 17.36C47.5444 16.896 47.7684 16.344 47.9284 15.704C48.0884 15.064 48.1684 14.352 48.1684 13.568C48.1684 12.8 48.0884 12.104 47.9284 11.48C47.7684 10.856 47.5444 10.32 47.2564 9.872C46.9684 9.408 46.6164 9.056 46.2004 8.816C45.8004 8.56 45.3524 8.432 44.8564 8.432ZM54.8681 20H54.1241V15.632H55.1321C55.4041 16.784 55.7961 17.624 56.3081 18.152C56.8201 18.68 57.4841 18.944 58.3001 18.944C58.8921 18.944 59.3481 18.824 59.6681 18.584C60.0041 18.328 60.1721 17.984 60.1721 17.552C60.1721 17.104 59.9721 16.672 59.5721 16.256C59.1721 15.824 58.5241 15.368 57.6281 14.888C56.4121 14.232 55.5401 13.584 55.0121 12.944C54.4841 12.288 54.2201 11.552 54.2201 10.736C54.2201 10.208 54.3161 9.72 54.5081 9.272C54.7161 8.808 54.9881 8.408 55.3241 8.072C55.6761 7.736 56.0921 7.48 56.5721 7.304C57.0521 7.112 57.5721 7.016 58.1321 7.016C58.6281 7.016 59.1161 7.088 59.5961 7.232C60.0921 7.376 60.5241 7.576 60.8921 7.832L61.3241 7.256H61.9481V10.88H61.0121C60.6441 9.968 60.2601 9.312 59.8601 8.912C59.4761 8.512 59.0041 8.312 58.4441 8.312C57.9961 8.312 57.6361 8.432 57.3641 8.672C57.1081 8.912 56.9801 9.232 56.9801 9.632C56.9801 10.08 57.1721 10.504 57.5561 10.904C57.9561 11.304 58.6121 11.744 59.5241 12.224C60.1641 12.576 60.7161 12.92 61.1801 13.256C61.6441 13.592 62.0201 13.936 62.3081 14.288C62.5961 14.624 62.8041 14.984 62.9321 15.368C63.0761 15.736 63.1481 16.136 63.1481 16.568C63.1481 17.128 63.0441 17.632 62.8361 18.08C62.6281 18.528 62.3321 18.912 61.9481 19.232C61.5641 19.552 61.1001 19.8 60.5561 19.976C60.0281 20.152 59.4361 20.24 58.7801 20.24C58.0921 20.24 57.4521 20.152 56.8601 19.976C56.2681 19.784 55.7801 19.512 55.3961 19.16L54.8681 20Z" fill="#232323"/>
</svg>
